<svg id="Capa_1" enable-background="new 0 0 512 512" height="512" viewBox="0 0 512 512" width="512" xmlns="http://www.w3.org/2000/svg"><g id="XMLID_587_"><path id="XMLID_591_" d="m408 37h-264c-22.091 0-40 17.909-40 40v264c0 22.091 17.909 40 40 40h264c22.091 0 40-17.909 40-40v-264c0-22.091-17.909-40-40-40z" fill="#ffec80"/><circle id="XMLID_585_" cx="402" cy="375" fill="#adeefa" r="100"/><path id="XMLID_1847_" d="m228 130.656v-93.656h96v93.656l-48-34.403z" fill="#fff"/><g id="XMLID_1328_"><path id="XMLID_1329_" d="m171.571 316.781h74.257c5.523 0 10-4.477 10-10s-4.477-10-10-10h-74.257c-5.523 0-10 4.477-10 10s4.477 10 10 10z"/><path id="XMLID_1332_" d="m171.571 268.781h48c5.523 0 10-4.477 10-10s-4.477-10-10-10h-48c-5.523 0-10 4.477-10 10s4.477 10 10 10z"/><path id="XMLID_1528_" d="m10 171h43c5.523 0 10-4.477 10-10s-4.477-10-10-10h-43c-5.523 0-10 4.477-10 10s4.477 10 10 10z"/><path id="XMLID_1626_" d="m53 247h-43c-5.523 0-10 4.477-10 10s4.477 10 10 10h43c5.523 0 10-4.477 10-10s-4.477-10-10-10z"/><path id="XMLID_1751_" d="m458 280.358v-62.358c0-5.523-4.477-10-10-10s-10 4.477-10 10v53.056c-11.285-3.92-23.397-6.056-36-6.056-59.315 0-107.806 47.192-109.92 106h-148.08c-16.542 0-30-13.458-30-30v-264c0-16.542 13.458-30 30-30h74v83.655c0 3.749 2.097 7.183 5.431 8.896 3.334 1.712 7.347 1.417 10.395-.768l42.174-30.227 42.174 30.227c1.731 1.241 3.774 1.872 5.827 1.872 1.561 0 3.127-.365 4.568-1.104 3.334-1.713 5.431-5.147 5.431-8.896v-83.655h74c16.542 0 30 13.458 30 30v51c0 5.523 4.477 10 10 10s10-4.477 10-10v-51c0-27.57-22.43-50-50-50h-264c-27.57 0-50 22.43-50 50v122h-49.419c-5.523 0-10 4.477-10 10s4.477 10 10 10h49.419v122c0 27.57 22.43 50 50 50h149.167c7.771 53.098 53.612 94 108.833 94 60.654 0 110-49.346 110-110 0-40.217-21.699-75.456-54-94.642zm-144-233.358v64.185l-32.174-23.06c-1.742-1.248-3.784-1.872-5.826-1.872s-4.084.624-5.826 1.872l-32.174 23.06v-64.185zm88 418c-49.626 0-90-40.374-90-90s40.374-90 90-90 90 40.374 90 90-40.374 90-90 90z"/><path id="XMLID_1754_" d="m402 325.507c-5.523 0-10 4.477-10 10v29.493h-18.261c-5.523 0-10 4.477-10 10s4.477 10 10 10h28.261c5.523 0 10-4.477 10-10v-39.493c0-5.523-4.477-10-10-10z"/><path id="XMLID_1756_" d="m448 163c-2.63 0-5.21 1.07-7.07 2.93s-2.93 4.44-2.93 7.07 1.07 5.21 2.93 7.07 4.44 2.93 7.07 2.93 5.21-1.07 7.07-2.93 2.93-4.44 2.93-7.07-1.07-5.21-2.93-7.07-4.44-2.93-7.07-2.93z"/></g></g></svg>